# xmcd
# 
# Track frame offsets:
#     150
#     8556
#     29650
#     51799
#     87741
#     105847
#     147231
#     159465
#     172220
#     187888
#     208414
#     220919
#     239797
#     258024
#     276593
#     287343
#     298336
#     312659
#     343332
# 
# Disc length: 4742
# 
# Revision: 7
# Processed by: cddbd v1.5.2PL0 Copyright (c) Steve Scherf et al.
# Submitted via: fre:ac v1.0.27
# 
DISCID=34128413
DTITLE=Stevie Ray Vaughan and Double Trouble - Couldn't Stand The Weather
DYEAR=1984
DGENRE=Rock
TTITLE0=Scuttle Buttin'
TTITLE1=Couldn't Stand The Weather
TTITLE2=The Things (That) I Used To Do
TTITLE3=Voodoo Child (Slight Return)
TTITLE4=Cold Shot
TTITLE5=Tin Pan Alley (The Roughest Place In Town)
TTITLE6=Honey Bee
TTITLE7=Stang's Swang
TTITLE8=Empty Arms
TTITLE9=Come On (Part III)
TTITLE10=Look At Little Sister
TTITLE11=The Sky Is Crying (previously unreleased 1984 version)
TTITLE12=Hide Away
TTITLE13=Give Me Back My Wig
TTITLE14=Boot Hill (previously unreleased 1984 version)
TTITLE15=Wham!
TTITLE16=Close To You
TTITLE17=Little Wing
TTITLE18=Stang's Swang (previously unreleased alternate take)
EXTD=2CD 2010 - digitally remastered, 2010\nCD 1 - Legacy Edition\nEpic 8 8697-55943-2 0
EXTT0=
EXTT1=
EXTT2=
EXTT3=
EXTT4=
EXTT5=
EXTT6=
EXTT7=
EXTT8=[Bonus Track]
EXTT9=[Bonus Track]
EXTT10=[Bonus Track]
EXTT11=[Bonus Track]
EXTT12=[Bonus Track]
EXTT13=[Bonus Track]
EXTT14=[Bonus Track]
EXTT15=[Bonus Track]
EXTT16=[Bonus Track]
EXTT17=[Bonus Track]
EXTT18=[Bonus Track]
PLAYORDER=
